<svg xmlns="http://www.w3.org/2000/svg" viewBox="0 0 236.6 55.6"><path fill="#25384a" d="M135 29.5l-3-.8c-1.3-.4-2-.8-2-1.5s.8-1.1 1.7-1.1a3.3 3.3 0 013 1.7l6-2.7c-1.2-3.3-4.8-5-9-5-5 0-9.4 2.7-9.4 7.3 0 3.5 2.2 6 6.6 7.2l3 .9c1.2.4 2.3 1 2.3 2s-1 1.5-2.3 1.5a5 5 0 01-4.6-2.9l-6.2 2.8c1.3 4 5.6 6.2 10.9 6.2s10-3 10-8c0-3.9-2.7-6.5-7-7.6M106.5 20A12 12 0 0094 32.4a12 12 0 0012.4 12.5 12.1 12.1 0 0012.4-12.5A12 12 0 00106.5 20m0 18c-3.2 0-5.1-2.3-5.1-5.6s2-5.6 5-5.6 5.2 2.3 5.2 5.6-2 5.6-5.1 5.6m-13-27.5h-9.2L72.2 28.6V10.5h-8.3v33.8h8.3V33.4l5.4-1 7.2 12h9.7L83.1 26zm42.1 8l3.7-5.6h-5.1l-2.1 3-2.1-3h-5l3.2 5.6zM146 44.3h7.8V20.9H146zm90.7-23.4h-18.4v1.8H233L217 44.3h19.4v-1.9h-15.7zm-32.3 1.4a9.5 9.5 0 018.5 4.8l.1.2 1.9-.8-.2-.3a11.3 11.3 0 00-10.3-5.8c-7 0-12 5.1-12 12.2s5 12.2 12 12.2a11.3 11.3 0 0010.3-5.8l.2-.2-1.9-1v.2a9.5 9.5 0 01-8.6 4.9c-5.9 0-10-4.3-10-10.3s4.1-10.3 10-10.3m-58-3.9h6.5l2.8-5.5h-7.4zm37 2.5h-8.6l-7.8 13v-21H159v31.4h7.8v-6.9l4.3-.8 4.3 7.7h9L176.8 31zm5.9 20.1a1.7 1.7 0 101.7 1.7 1.7 1.7 0 00-1.7-1.7"/><path fill="#c20019" d="M27.8 0a27.8 27.8 0 1027.8 27.8A27.8 27.8 0 0027.8 0"/><path fill="#fff" d="M27.8 3.4a24.4 24.4 0 00-19 9.2h4.1a21.3 21.3 0 11-6.4 15.2 21.5 21.5 0 01.8-6H4.2A24.4 24.4 0 1027.8 3.4M6.6 15.6a24 24 0 00-1.4 3.1h6.5a.3.3 0 01.3.2l2.7 10.6a.3.3 0 01-.2.4h-1.4a.3.3 0 00-.2.3l.5 2.6a.3.3 0 00.3.2h1.7a.3.3 0 01.3.1l1.6 6.4a.3.3 0 00.3.2h2a1.8 1.8 0 102.9 1.5 1.9 1.9 0 00-.8-1.5h10.9a1.8 1.8 0 102.1 0h2a.3.3 0 00.2-.2l.7-2.5a.3.3 0 00-.3-.4H20.1a.3.3 0 01-.3-.2l-.9-3.3a.3.3 0 01.3-.4l17.2-.8a.5.5 0 00.4-.3l3.7-14.4a1.3 1.3 0 00-1.3-1.6zm9 3.1h20.3c.8 0 1 0 .7 1.1L34.5 28a1.3 1.3 0 01-1.2 1l-15 .7a.3.3 0 01-.3-.2L15.3 19a.3.3 0 01.2-.3"/></svg>