<svg xmlns="http://www.w3.org/2000/svg" width="72" height="36" fill="none">
    <path fill="#007ABC" d="M6.15 35.79C2.04 35.77-.03 34.26 0 31.4c0-2.2 1.71-3.37 4.12-3.82l2.57-.5c.9-.2 1.9-.32 1.9-1.33 0-.83-.68-1.34-2.4-1.34-1.37 0-3.43.5-5.5 1.31l.71-3.34c1.72-.65 3.78-.99 5.49-.99 3.77.02 5.65 1.36 5.64 4.04l-.04 9.2a19.42 19.42 0 0 1-6.34 1.15Zm2.43-6.85-2.75.66c-1.07.25-2.06.58-2.07 1.75 0 1 .85 1.59 2.4 1.6.86 0 1.8-.17 2.4-.42l.02-3.59Zm6.82 6.55.08-19.06 3.93.67-.06 18.4H15.4Zm6.87-.81.06-18.22 3.95.67-.03 5.2a6.4 6.4 0 0 1 3.26-.83c4.3.02 6.67 2.52 6.66 6.7 0 4.69-2.93 7.68-8.08 7.67a17.39 17.39 0 0 1-5.82-1.2Zm3.98-9.4-.03 6.98c.6.3 1.24.43 2.06.43 2.22 0 3.77-1.33 3.78-4.17.01-2.34-1-3.84-3.42-3.85-1.02 0-1.8.24-2.4.61Zm24.32 6.49-.88 3.33c-1.02.5-2.74.82-4.11.81-5.48 0-8.04-3.02-8.03-7.2.02-4.51 3.27-7.18 7.91-7.16 1.88 0 4.28.51 6 1.52-.37 5.06-4.27 7.22-9.2 7.96.67 1.17 1.92 1.7 3.66 1.71 1.39 0 3.27-.32 4.65-.97Zm-8.9-3.13c2.91-.42 5.18-1.7 5.84-3.58a4.98 4.98 0 0 0-2.22-.5c-2.07-.02-3.61 1.3-3.62 3.65v.43ZM62.6 22.1l-.53 2.33c-.18.92-.6 1.17-1.72 1.16h-.34c-1.72 0-2.76 1.17-2.77 3.5l-.01 6.53-3.94-.01.04-13.38 3.94-.65v3c.51-1.66 1.72-2.5 3.61-2.49h1.72Zm8.55 2.36c-.21 1.01-.69 1.17-1.71 1.17l-2.06-.01-.01 3.51c-.01 2.69.67 3.69 3.42 3.69.16 0 .68 0 1.2-.16l-.7 3c-.35.18-1.03.33-1.89.33-3.6-.01-6-1.87-5.98-5.86l.05-12.88 3.94-.65-.02 5.51 4.29.02-.53 2.33Z"/>
    <path fill="#88AB32" d="M49.33 2.72C47.84.79 41.85 1.68 35.95 4.68c-5.92 3-8.9 6.83-8.04 9.08.18.48.67 1.1 1.25 1.62-.52-.47-.82-.98-.82-1.51-.04-2.52 6.4-4.62 14.37-4.64.84 0 1.66.02 2.48.06 3.49-2.5 5.27-5.12 4.14-6.57Z"/>
    <path fill="#F8DC00" d="M57.24 13.77c.05 2.53-6.4 4.6-14.38 4.64-7.98.03-14.48-2-14.52-4.54-.04-2.52 6.4-4.6 14.37-4.64 7.99-.03 14.49 2 14.53 4.54Z"/>
    <path fill="#007ABC" d="M27.9 13.76c-.85-2.26 2.13-6.08 8.05-9.08.65-.34 1.7-.27 1.95-.9.7-1.82.05-3.23-1.42-3.68-2.1-.63-5.55 1.7-7.77 5.44a13.2 13.2 0 0 0-1.61 4.19 5.95 5.95 0 0 0 1.18 4.69 3.13 3.13 0 0 1-.37-.66Z"/>
</svg>
